# xmcd CD database file
#
# Track frame offsets:
#	150
#	20472
#	50222
#	73987
#	92852
#	111955
#	134405
#	144567
#	165822
#	185000
#	236942
#
# Disc length: 3163 seconds
#
# Revision: 0
# Processed by: cddbd v1.5PL3 Copyright (c) Steve Scherf et al.
# Submitted via: CDex 1.51
#
DISCID=a60c590b
DTITLE=SUPER BUTTER DOG - Hello! Feed Back
DYEAR=1999
DGENRE=Funk
TTITLE0=Give Me Delight いーじゃない'99
TTITLE1=Yo!兄弟
TTITLE2=ボク･モード キミ・モード
TTITLE3=アサガオ記念日
TTITLE4=5秒前の午後
TTITLE5=ベストフレンド
TTITLE6=マッケンLO
TTITLE7=ネブラスカ
TTITLE8=モシモシ
TTITLE9=始まりの朝
TTITLE10=？
EXTD=YEAR: 1999
EXTT0=
EXTT1=
EXTT2=
EXTT3=
EXTT4=
EXTT5=
EXTT6=
EXTT7=
EXTT8=
EXTT9=
EXTT10=
PLAYORDER=
